<svg width="32" height="31" viewBox="0 0 32 31" fill="none" xmlns="http://www.w3.org/2000/svg">
<path d="M17.6017 6.41244C22.6715 6.41244 25.5464 9.76724 25.9655 13.8196H26.0935C26.8682 13.8185 27.6356 13.9701 28.3517 14.2656C29.0679 14.5612 29.7188 14.9949 30.2673 15.5421C30.8158 16.0892 31.2511 16.7391 31.5484 17.4545C31.8457 18.1699 31.9992 18.9369 32 19.7117C31.999 20.4863 31.8453 21.2531 31.5479 21.9683C31.2505 22.6835 30.8152 23.3332 30.2667 23.8802C29.7182 24.4272 29.0674 24.8608 28.3514 25.1562C27.6353 25.4517 26.8681 25.6032 26.0935 25.6022L25.1016 25.6006L22.6219 29.7985C22.4698 30.0615 22.2235 30.2571 21.9328 30.3456C21.6421 30.4342 21.3286 30.4091 21.0556 30.2754C20.7827 30.1418 20.5706 29.9096 20.4622 29.6257C20.3539 29.3418 20.3573 29.0273 20.4718 28.7458L20.5438 28.5986L22.3323 25.6006H18.9152L16.4338 29.7985C16.2817 30.0615 16.0354 30.2571 15.7447 30.3456C15.454 30.4342 15.1405 30.4091 14.8676 30.2754C14.5946 30.1418 14.3826 29.9096 14.2742 29.6257C14.1658 29.3418 14.1692 29.0273 14.2837 28.7458L14.3557 28.5986L16.1443 25.6006H12.7271L10.2458 29.7985C10.0937 30.0615 9.84736 30.2571 9.55664 30.3456C9.26592 30.4342 8.95244 30.4091 8.6795 30.2754C8.40656 30.1418 8.19449 29.9096 8.08612 29.6257C7.97775 29.3418 7.98115 29.0273 8.09564 28.7458L8.16763 28.5986L9.95462 25.6006L9.11152 25.6022C8.33692 25.6032 7.56969 25.4517 6.85365 25.1562C6.13761 24.8608 5.48677 24.4272 4.9383 23.8802C4.38983 23.3332 3.95447 22.6835 3.65708 21.9683C3.35968 21.2531 3.20607 20.4863 3.20502 19.7117C3.20586 18.9369 3.35931 18.1699 3.65662 17.4545C3.95392 16.7391 4.38925 16.0892 4.93774 15.5421C5.48623 14.9949 6.13713 14.5612 6.85328 14.2656C7.56943 13.9701 8.33678 13.8185 9.11152 13.8196H9.2395C9.66025 9.74004 12.5335 6.41244 17.6017 6.41244V6.41244ZM17.6017 8.80895C14.2885 8.80895 11.3992 11.4214 11.3992 15.0306C11.3992 15.6017 10.8889 16.0513 10.305 16.0513H9.20111C7.18375 16.0513 5.54714 17.6527 5.54714 19.6285C5.54714 21.6042 7.18375 23.2072 9.20111 23.2072H26.0039C28.0197 23.2072 29.6563 21.6042 29.6563 19.6285C29.6563 17.6527 28.0213 16.0513 26.0039 16.0513H24.8984C24.3145 16.0513 23.8042 15.6033 23.8042 15.0306C23.8042 11.375 20.9149 8.80735 17.6017 8.80735V8.80895ZM3.78895 13.0612C3.89962 13.3292 3.90955 13.6281 3.81691 13.9028C3.72428 14.1774 3.53533 14.4093 3.28501 14.5555L3.13943 14.6291L1.658 15.2418C1.37722 15.3578 1.06288 15.363 0.778437 15.2563C0.493989 15.1496 0.260608 14.9389 0.125394 14.6669C-0.00982086 14.3948 -0.0368013 14.0816 0.0498976 13.7904C0.136597 13.4993 0.330519 13.2518 0.592529 13.098L0.739712 13.0245L2.22114 12.4117C2.36673 12.3514 2.52277 12.3204 2.68036 12.3204C2.83795 12.3204 2.99399 12.3514 3.13958 12.4117C3.28517 12.472 3.41745 12.5605 3.52887 12.6719C3.64029 12.7833 3.72867 12.9156 3.78895 13.0612V13.0612ZM14.1669 5.32777L13.8917 5.42055C13.0597 5.71219 12.2733 6.12048 11.556 6.63321C10.7858 6.38301 9.95677 6.37838 9.18375 6.61996C8.41074 6.86154 7.73191 7.33739 7.24118 7.98167C6.75046 8.62596 6.4721 9.40683 6.44461 10.2162C6.41712 11.0257 6.64187 11.8236 7.08776 12.4997C6.30804 12.7187 5.56972 13.0646 4.90242 13.5236C4.16917 12.2633 3.89529 10.7879 4.12736 9.3484C4.35943 7.90892 5.08313 6.59432 6.1753 5.62833C7.26746 4.66234 8.66061 4.10463 10.1177 4.05012C11.5747 3.99562 13.0056 4.44767 14.1669 5.32937V5.32777ZM1.50602 5.37736L1.6756 5.43335L3.15702 6.04768C3.43559 6.16445 3.65987 6.38199 3.78508 6.65687C3.91029 6.93175 3.92722 7.24373 3.83249 7.53055C3.73776 7.81736 3.53834 8.05789 3.27405 8.20412C3.00975 8.35035 2.70003 8.39152 2.40671 8.31941L2.24033 8.26662L0.75891 7.65229C0.481081 7.53517 0.257529 7.31775 0.132733 7.04329C0.00793801 6.76882 -0.00895242 6.45743 0.0854231 6.17108C0.179799 5.88473 0.378522 5.6444 0.642052 5.49792C0.905582 5.35144 1.2146 5.30954 1.50762 5.38056L1.50602 5.37736ZM7.6093 0.600328L7.68289 0.74591L8.29561 2.22893C8.40996 2.50947 8.41395 2.82287 8.30679 3.10623C8.19963 3.38959 7.98925 3.62192 7.71789 3.75659C7.44652 3.89126 7.13426 3.9183 6.84379 3.83227C6.55332 3.74625 6.30613 3.55353 6.15187 3.29281L6.07828 3.14723L5.46555 1.6642C5.35121 1.38367 5.34721 1.07026 5.45437 0.786903C5.56153 0.503546 5.77191 0.271211 6.04328 0.136541C6.31464 0.00187167 6.6269 -0.0251642 6.91738 0.0608611C7.20785 0.146886 7.45503 0.339605 7.6093 0.600328V0.600328ZM14.5749 0.0915883C14.8401 0.201795 15.0571 0.403518 15.1863 0.660099C15.3154 0.91668 15.3483 1.21109 15.2788 1.48982L15.2228 1.6578L14.6101 3.14083C14.4933 3.41939 14.2758 3.64367 14.0009 3.76888C13.726 3.89409 13.414 3.91102 13.1272 3.81629C12.8404 3.72156 12.5999 3.52214 12.4536 3.25785C12.3074 2.99355 12.2662 2.68383 12.3383 2.39052L12.3927 2.22253L13.0071 0.739511C13.1291 0.44574 13.3628 0.212462 13.6568 0.0909623C13.9508 -0.0305373 14.281 -0.0303122 14.5749 0.0915883Z" fill="#3083F5"/>
</svg>
